<?xml version="1.0" encoding="UTF-8" standalone="no"?>
<svg width="1057px" height="237px" viewBox="0 0 1057 237" version="1.1" xmlns="http://www.w3.org/2000/svg" xmlns:xlink="http://www.w3.org/1999/xlink" xmlns:sketch="http://www.bohemiancoding.com/sketch/ns">
    <!-- Generator: Sketch 3.4.4 (17249) - http://www.bohemiancoding.com/sketch -->
    <title>logo</title>
    <desc>Created with Sketch.</desc>
    <defs>
        <path id="path-1" d="M0,3.53632653 L1057.19296,3.53632653 L1057.19296,240 L0,240"></path>
    </defs>
    <g id="Page-1" stroke="none" stroke-width="1" fill="none" fill-rule="evenodd" sketch:type="MSPage">
        <g id="Logo" sketch:type="MSArtboardGroup" transform="translate(-270.000000, -283.000000)">
            <g id="logo" sketch:type="MSLayerGroup" transform="translate(270.000000, 280.000000)">
                <g id="Group-3">
                    <mask id="mask-2" sketch:name="Clip 2" fill="white">
                        <use xlink:href="#path-1"></use>
                    </mask>
                    <g id="Clip-2"></g>
                    <path d="M136.40188,199.338612 C147.24725,180.721469 150.270213,151.975347 144.592343,118.105959 C137.471694,75.5965714 115.726972,41.932898 78.322713,18.3394286 C68.7434537,12.2953469 58.5703981,7.46106122 47.7937315,3.67983673 C45.5510463,2.89126531 43.6518796,5.5557551 45.1486389,7.40228571 C45.9779907,8.42106122 46.7582685,9.45942857 47.4600278,10.5467755 C49.702713,14.0096327 51.7000278,17.7614694 52.9857685,21.645551 C58.0600278,36.9369796 55.2971574,51.6847347 47.9703981,65.5214694 C42.8765093,75.1361633 36.5361389,84.1386122 30.6128981,93.3320816 C18.3100278,112.414531 7.41558333,132.11902 2.37567593,154.355755 C-3.78312037,181.544327 1.71317593,205.701061 22.589287,225.650449 C29.5578056,232.301878 37.4979907,237.126367 46.5079907,239.888816 C48.8880833,240.618612 50.6203981,237.611265 48.8193796,235.89698 C41.6054907,229.015347 31.3293796,217.407184 31.3931759,207.199837 C31.4766019,192.93698 37.1593796,180.300245 44.5303056,168.319837 C50.38975,158.803102 56.7595648,149.575347 62.4276204,139.950857 C69.2685463,128.328 73.9158611,115.985143 72.8018796,102.221878 C72.6153981,99.8659592 73.6999352,96.4814694 74.1268796,97.2896327 C75.6776204,100.228408 77.3363241,103.123102 78.6416944,106.164735 C87.7498426,127.353306 125.159009,150.422694 97.82475,229.132898 C97.2064167,230.920653 99.6355833,232.233306 100.980213,230.901061 C100.980213,230.901061 120.374287,226.850449 136.40188,199.338612" id="Fill-1" fill="#08D0C1" sketch:type="MSShapeGroup" mask="url(#mask-2)"></path>
                </g>
                <path d="M336,83.105929 L290.757665,83.105929 L290.757665,206 L254.413774,206 L254.413774,83.105929 L210,83.105929 L210,55 L336,55 L336,83.105929 Z" id="Fill-4" fill="#FFFFFF" sketch:type="MSShapeGroup"></path>
                <path d="M378.795812,117.882586 C375.826243,117.882586 373.268979,118.401536 371.124018,119.43454 C368.983966,120.467545 367.202225,121.882417 365.788613,123.669368 C364.370092,125.46611 363.246073,127.600658 362.416558,130.082806 C361.587042,132.564953 360.968586,135.252722 360.551374,138.146113 L395.793521,138.146113 L395.793521,135.458344 C395.930955,129.877184 394.517343,125.549337 391.547775,122.484595 C388.573298,119.414957 384.322644,117.882586 378.795812,117.882586 M382.73233,207 C373.612565,207 365.459751,205.555753 358.273887,202.657466 C351.083115,199.764075 345.040903,195.83768 340.132526,190.873386 C335.224149,185.909091 331.479058,180.15658 328.887435,173.606061 C326.295812,167.060437 325,160.098675 325,152.725669 L325,148.794378 C325,140.662531 326.124018,133.06432 328.367147,125.999747 C330.615183,118.935173 334.001963,112.815481 338.527487,107.645564 C343.05301,102.475648 348.682919,98.4121719 355.42212,95.4453448 C362.161322,92.4834135 370.019634,91 379.001963,91 C386.948626,91 394.085406,92.2777918 400.407395,94.8284798 C406.729385,97.3791677 412.084424,101.0314 416.472513,105.785178 C420.860602,110.543851 424.213024,116.296362 426.529777,123.052503 C428.841623,129.808644 430,137.387271 430,145.798177 L430,159.961594 L360.551374,159.961594 C361.798102,166.233055 364.52716,171.163079 368.743455,174.746771 C372.954843,178.330463 378.412958,180.122309 385.117801,180.122309 C389.888743,180.122309 394.566427,179.226386 399.165576,177.43454 C403.759817,175.642694 407.715969,172.675867 411.034031,168.543851 L426.996073,187.358234 C425.194699,189.840382 422.902487,192.253988 420.099804,194.594159 C417.302029,196.939225 414.037958,199.024816 410.307592,200.850933 C406.577225,202.677049 402.395288,204.160463 397.76178,205.296278 C393.133181,206.432093 388.126636,207 382.73233,207" id="Fill-6" fill="#FFFFFF" sketch:type="MSShapeGroup"></path>
                <path d="M495.866588,180.117414 C500.77375,180.117414 504.580607,178.790664 507.277336,176.137166 C509.974064,173.483667 511.285588,169.777581 511.216819,165.023803 L544,165.023803 C544,171.363805 542.806366,177.101629 540.419098,182.237275 C538.03183,187.372921 534.730917,191.783996 530.511445,195.470499 C526.291974,199.157002 521.281658,202.001435 515.470675,203.998903 C509.664604,205.99637 503.401709,207 496.696729,207 C487.91394,207 480.236369,205.550857 473.668926,202.657466 C467.096571,199.75918 461.619609,195.778931 457.228215,190.711826 C452.836821,185.649616 449.530995,179.652317 447.320562,172.724825 C445.105217,165.797333 444,158.301933 444,150.238626 L444,147.859289 C444,139.795982 445.105217,132.285895 447.320562,125.324133 C449.530995,118.36237 452.817173,112.345488 457.174182,107.283278 C461.531192,102.216173 466.978682,98.2359247 473.51174,95.342534 C480.04971,92.4442475 487.673249,91 496.387268,91 C503.441006,91 509.885647,91.9987339 515.731015,93.9962016 C521.576383,95.998565 526.586698,98.906643 530.771785,102.730227 C534.956872,106.558707 538.203753,111.263527 540.522252,116.844686 C542.840751,122.425846 544,128.770744 544,135.869587 L511.216819,135.869587 C511.216819,133.38744 510.922095,131.042374 510.337558,128.839284 C509.748109,126.631299 508.800079,124.721955 507.483643,123.10146 C506.172119,121.480966 504.526574,120.203174 502.556833,119.272981 C500.587091,118.342787 498.253856,117.877691 495.557127,117.877691 C491.961489,117.877691 489.07319,118.690386 486.892229,120.305985 C484.71618,121.926479 483.036251,124.100194 481.862265,126.822233 C480.68828,129.544273 479.90726,132.731409 479.52903,136.383641 C479.145889,140.04077 478.95923,143.864354 478.95923,147.859289 L478.95923,150.238626 C478.95923,154.375538 479.145889,158.252975 479.52903,161.870938 C479.90726,165.4889 480.68828,168.661349 481.862265,171.378492 C483.036251,174.105428 484.750565,176.239976 487.000295,177.79193 C489.245112,179.343885 492.202181,180.117414 495.866588,180.117414" id="Fill-8" fill="#FFFFFF" sketch:type="MSShapeGroup"></path>
                <path d="M597.875406,105.003083 C601.393819,100.586552 605.54927,97.1356784 610.34666,94.6504609 C615.139149,92.1652434 620.500073,90.9250856 626.434331,90.9250856 C632.025569,90.9250856 637.112076,91.7191787 641.698753,93.307365 C646.28543,94.8955514 650.235069,97.4444924 653.547669,100.963992 C656.860269,104.483491 659.428024,109.076487 661.260735,114.733175 C663.083645,120.394765 664,127.296513 664,135.433517 L664,205 L629.021687,205 L629.021687,135.227641 C629.021687,131.850294 628.659066,129.036656 627.938722,126.791627 C627.213478,124.5515 626.159915,122.757437 624.782931,121.40944 C623.401048,120.066344 621.730047,119.135 619.760128,118.615408 C617.795109,118.095817 615.570375,117.840922 613.085925,117.840922 C609.224492,117.840922 606.068701,118.443845 603.618553,119.64969 C601.168405,120.860437 599.25239,122.531954 597.875406,124.669143 L597.875406,205 L563,205 L563,46 L597.875406,46 L597.875406,105.003083 Z" id="Fill-10" fill="#FFFFFF" sketch:type="MSShapeGroup"></path>
                <path d="M812,187.290188 C810.07305,189.432751 807.388037,191.707693 803.94496,194.124818 C800.501883,196.541943 796.300741,198.782565 791.346427,200.851585 C786.387222,202.925508 780.655281,204.631714 774.145713,205.980009 C767.641036,207.323401 760.324496,208 752.200986,208 C742.145635,208 733.05865,206.377143 724.93514,203.131429 C716.806738,199.885715 709.857004,195.159328 704.071265,188.947365 C698.290416,182.735402 693.830066,175.091795 690.695105,166.01164 C687.565035,156.936389 686,146.532454 686,134.794933 L686,126.410989 C686,114.67837 687.579707,104.254824 690.748903,95.1403492 C693.913209,86.0307775 698.339324,78.35285 704.017467,72.1065667 C709.700501,65.8602834 716.464387,61.1142848 724.314016,57.8685709 C732.163646,54.622857 740.771339,53 750.137096,53 C760.529907,53 769.450607,54.2649459 776.884524,56.7801291 C784.318441,59.3002151 790.519893,62.8401025 795.474207,67.3948883 C800.433412,71.9496742 804.218841,77.3673689 806.835384,83.6479724 C809.451927,89.9334788 811.139231,96.8367495 811.897295,104.357785 L776.98723,104.357785 C776.434577,100.631587 775.59337,97.3172329 774.45872,94.4147213 C773.319179,91.5171127 771.734581,89.07057 769.704926,87.0652875 C767.675271,85.064908 765.161433,83.5450117 762.168303,82.5105017 C759.170283,81.4759916 755.575593,80.9562852 751.374452,80.9562852 C747.03637,80.9562852 743.094438,81.8878345 739.548655,83.7509331 C736.002872,85.6189346 732.99018,88.4282913 730.510577,92.1888088 C728.030975,95.9542291 726.123588,100.665908 724.778636,106.323844 C723.438575,111.986683 722.763653,118.610489 722.763653,126.205067 L722.763653,134.794933 C722.763653,149.846808 725.331289,161.147972 730.46167,168.703328 C735.58716,176.263586 743.661763,180.043715 754.680588,180.043715 C757.571013,180.043715 760.153321,179.852502 762.427512,179.474979 C764.696813,179.092554 766.692233,178.592459 768.413772,177.969792 C770.13531,177.352028 771.59764,176.66072 772.805652,175.900772 C774.008772,175.140824 774.99181,174.420099 775.749874,173.728791 L775.749874,150.327292 L750.547918,150.327292 L750.547918,125.376479 L812,125.376479 L812,187.290188 Z" id="Fill-12" fill="#FFFFFF" sketch:type="MSShapeGroup"></path>
                <path d="M886.795812,117.882586 C883.826243,117.882586 881.268979,118.401536 879.124018,119.43454 C876.983966,120.467545 875.202225,121.882417 873.788613,123.669368 C872.370092,125.46611 871.246073,127.600658 870.416558,130.082806 C869.587042,132.564953 868.968586,135.252722 868.551374,138.146113 L903.793521,138.146113 L903.793521,135.458344 C903.930955,129.877184 902.517343,125.549337 899.547775,122.484595 C896.573298,119.414957 892.322644,117.882586 886.795812,117.882586 M890.73233,207 C881.612565,207 873.459751,205.555753 866.273887,202.657466 C859.083115,199.764075 853.040903,195.83768 848.132526,190.873386 C843.224149,185.909091 839.479058,180.15658 836.887435,173.606061 C834.295812,167.060437 833,160.098675 833,152.725669 L833,148.794378 C833,140.662531 834.124018,133.06432 836.367147,125.999747 C838.615183,118.935173 842.001963,112.815481 846.527487,107.645564 C851.05301,102.475648 856.682919,98.4121719 863.42212,95.4453448 C870.161322,92.4834135 878.019634,91 887.001963,91 C894.948626,91 902.085406,92.2777918 908.407395,94.8284798 C914.729385,97.3791677 920.084424,101.0314 924.472513,105.785178 C928.860602,110.543851 932.213024,116.296362 934.529777,123.052503 C936.841623,129.808644 938,137.387271 938,145.798177 L938,159.961594 L868.551374,159.961594 C869.798102,166.233055 872.52716,171.163079 876.743455,174.746771 C880.954843,178.330463 886.412958,180.122309 893.117801,180.122309 C897.888743,180.122309 902.566427,179.226386 907.165576,177.43454 C911.759817,175.642694 915.715969,172.675867 919.034031,168.543851 L934.996073,187.358234 C933.194699,189.840382 930.902487,192.253988 928.099804,194.594159 C925.302029,196.939225 922.037958,199.024816 918.307592,200.850933 C914.577225,202.677049 910.395288,204.160463 905.766688,205.296278 C901.133181,206.432093 896.126636,207 890.73233,207" id="Fill-14" fill="#FFFFFF" sketch:type="MSShapeGroup"></path>
                <path d="M988.734616,93.0672941 L989.872699,106.205879 C993.669581,101.238494 998.280781,97.4664174 1003.70139,94.8798505 C1009.12691,92.2932835 1015.18524,91 1021.8862,91 C1027.06154,91 1031.81009,91.739719 1036.12696,93.2240557 C1040.44383,94.7083924 1044.15732,97.1528942 1047.26252,100.567359 C1050.37263,103.981823 1052.77143,108.464226 1054.46384,114.014567 C1056.15625,119.569808 1057,126.413433 1057,134.550342 L1057,205 L1021.98922,205 L1021.98922,134.447467 C1021.98922,131.067294 1021.62621,128.309269 1020.90019,126.173392 C1020.17417,124.032616 1019.1391,122.342529 1017.79008,121.103133 C1016.44597,119.858837 1014.7879,119.016243 1012.82078,118.570452 C1010.85366,118.119763 1008.62655,117.894418 1006.13944,117.894418 C1002.40633,117.894418 999.315848,118.619441 996.867988,120.069486 C994.415222,121.514632 992.428481,123.48395 990.907766,125.962743 L990.907766,205 L956,205 L956,93.0672941 L988.734616,93.0672941 Z" id="Fill-16" fill="#FFFFFF" sketch:type="MSShapeGroup"></path>
            </g>
        </g>
    </g>
</svg>